<?xml version="1.0" encoding="UTF-8"?>
<!DOCTYPE svg PUBLIC "-//W3C//DTD SVG 1.1//EN" "http://www.w3.org/Graphics/SVG/1.1/DTD/svg11.dtd">
<!-- Creator: CorelDRAW X5 -->
<svg xmlns="http://www.w3.org/2000/svg" xml:space="preserve" width="19.7272mm" height="31.4476mm" style="shape-rendering:geometricPrecision; text-rendering:geometricPrecision; image-rendering:optimizeQuality; fill-rule:evenodd; clip-rule:evenodd"
viewBox="0 0 1973 3145"
 xmlns:xlink="http://www.w3.org/1999/xlink"
 xmlns:svg="http://www.w3.org/2000/svg"
 version="1.1">
 <defs>
  <style type="text/css">
   <![CDATA[
    .fil1 {fill:#0032A1}
    .fil3 {fill:#00B74F}
    .fil5 {fill:#1B1658}
    .fil2 {fill:#C80F2E}
    .fil4 {fill:#E5002B}
    .fil0 {fill:white}
    .fil6 {fill:url(#id0)}
    .fil7 {fill:url(#id1)}
   ]]>
  </style>
  <linearGradient id="id0" gradientUnits="userSpaceOnUse" x1="707.11" y1="1695.02" x2="1263.1" y2="1695.02">
   <stop offset="0" style="stop-color:#2EE5FC"/>
   <stop offset="1" style="stop-color:#0573FF"/>
  </linearGradient>
  <linearGradient id="id1" gradientUnits="userSpaceOnUse" xlink:href="#id0" x1="1219.49" y1="1523.7" x2="751.35" y2="227.94">
  </linearGradient>
 </defs>
 <g id="Layer_x0020_1">
  <metadata id="CorelCorpID_0Corel-Layer"/>
 </g>
 <g id="svg2">
  <metadata id="CorelCorpID_1Corel-Layer"/>
  <polygon class="fil0" points="2,3145 1971,3145 1971,0 2,0 "/>
  <polygon class="fil1" points="2,3145 1971,3145 1971,2494 2,2494 "/>
  <path class="fil2" d="M1598 2785c-1,1 -1,2 -1,3 -15,38 -30,75 -45,113 -4,11 -9,22 -13,33 -2,6 -6,9 -11,9 -20,0 -39,1 -58,0 -6,0 -10,-4 -13,-9 -18,-43 -36,-85 -55,-128 -3,-6 -5,-13 -8,-20 0,2 0,3 0,5 0,67 1,133 1,201 0,8 -1,11 -9,11 -16,1 -33,1 -50,1 -6,0 -11,0 -17,-1 -8,-1 -9,-3 -9,-10l-1 -348c0,-7 1,-9 9,-10 5,-1 10,-1 15,-1 18,0 36,0 54,0 6,0 12,1 18,3 3,1 6,4 8,7 20,45 39,90 57,135 11,26 21,53 31,80 0,0 1,-1 1,-3 14,-36 28,-73 43,-109 14,-34 28,-68 42,-103 3,-6 7,-10 13,-10 9,-1 19,-1 28,-1 13,0 25,0 36,0 4,0 9,1 14,2 4,1 6,3 6,8 0,13 0,25 0,37 0,104 1,208 1,312 0,8 -2,10 -9,11 -16,1 -33,1 -48,1 -6,0 -13,0 -19,-1 -7,-1 -8,-3 -8,-9 0,-67 -1,-135 -1,-202 0,-1 0,-3 0,-4 1,-1 0,-1 0,-1z"/>
  <path class="fil3" d="M919 2714c-14,0 -28,0 -43,0 -14,0 -27,0 -41,0 -6,0 -8,-1 -9,-7 -1,-4 -1,-8 -1,-11 0,-15 0,-31 0,-46 0,-3 1,-6 1,-9 1,-6 2,-7 8,-7 53,0 107,-1 160,-1 31,0 62,0 93,0 6,0 8,1 8,7 1,6 1,12 1,18 0,15 0,31 -1,46 0,8 -3,9 -10,9 -26,0 -51,0 -76,0 -2,0 -3,0 -5,0 0,2 0,3 0,5 0,91 1,182 1,274 0,9 -1,11 -10,11 -16,1 -33,1 -49,1 -6,0 -13,0 -19,-1 -6,-1 -7,-3 -7,-8 0,-92 -1,-184 -1,-275 0,-2 0,-4 0,-6z"/>
  <path class="fil4" d="M506 2635c67,0 133,0 201,-1 11,0 21,10 21,21 0,13 0,26 0,40 0,9 -8,18 -18,19 -5,1 -10,1 -15,1 -128,1 -257,1 -385,1 -9,0 -18,-3 -23,-11 -1,-3 -3,-6 -3,-9 0,-13 0,-26 0,-38 0,-11 9,-21 20,-21 66,0 133,0 201,-1z"/>
  <path class="fil0" d="M1154 2818l-1 -174c0,-8 1,-9 9,-10 7,-1 14,-1 21,-1 14,0 30,1 44,1 2,0 4,1 6,1 4,1 6,4 6,8 0,23 0,45 0,67 0,94 1,187 1,281 0,8 -1,11 -9,11 -16,1 -33,1 -50,1 -6,0 -13,0 -18,-1 -6,-1 -8,-3 -8,-9 -1,-58 -1,-116 -1,-175z"/>
  <path class="fil4" d="M551 2781c2,0 3,0 4,0 50,0 101,0 150,-1 11,0 19,5 22,15 1,2 1,4 1,6 0,13 0,25 0,38 0,11 -9,20 -20,20 -52,0 -104,1 -155,1 -1,0 -1,0 -3,0 0,-26 0,-52 0,-79z"/>
  <path class="fil4" d="M551 3005c0,-26 0,-52 0,-79 2,0 3,0 4,0 50,0 100,-1 150,-1 12,0 19,5 22,15 1,2 1,4 1,6 0,13 0,26 0,38 0,9 -9,19 -19,19 -52,0 -104,1 -156,1 -1,0 -1,0 -3,0z"/>
  <path class="fil4" d="M462 2927c0,26 0,52 0,79 -2,0 -3,0 -4,0 -50,0 -101,0 -152,1 -12,0 -21,-9 -21,-21 0,-13 0,-25 0,-38 0,-11 9,-20 20,-20 52,0 103,-1 155,-1 0,1 1,1 3,1z"/>
  <path class="fil4" d="M462 2860c-2,0 -4,0 -6,0 -50,0 -100,0 -150,1 -12,0 -23,-10 -22,-22 1,-12 0,-25 0,-37 0,-11 9,-20 20,-20 52,0 104,-1 155,-1 1,0 1,0 3,0 1,26 1,53 1,79z"/>
  <path class="fil5" d="M321 2343c-20,-8 -36,-17 -48,-28 -2,-2 -3,-4 -1,-7l32 -36c2,-2 4,-3 6,-1 25,20 50,30 75,30 29,0 47,-13 47,-34 0,-18 -12,-28 -44,-32l-15 -2c-60,-8 -91,-37 -91,-86 0,-26 9,-48 28,-64 18,-16 43,-24 74,-24 39,0 72,10 97,30 3,2 3,4 1,6l-26 38c-2,2 -4,3 -6,1 -22,-14 -45,-22 -67,-22 -25,0 -38,13 -38,31 0,17 13,27 45,31l15 2c60,8 91,37 91,87 0,54 -40,91 -113,91 -22,-1 -43,-4 -63,-12z"/>
  <path class="fil5" d="M530 2067c0,-3 1,-4 4,-4l184 0c3,0 4,1 4,4l0 45c0,3 -1,4 -4,4l-123 0c-2,0 -3,1 -3,3l0 57c0,2 1,3 3,3l103 0c3,0 4,1 4,4l0 45c0,3 -1,4 -4,4l-103 0c-2,0 -3,1 -3,3l0 60c0,2 1,3 3,3l124 0c3,0 4,1 4,4l0 45c0,3 -1,4 -4,4l-184 0c-3,0 -4,-1 -4,-4l0 -280z"/>
  <path class="fil5" d="M920 2349c-3,0 -5,-1 -6,-4l-49 -105 -38 0c-2,0 -3,1 -3,3l0 103c0,3 -1,4 -4,4l-53 0c-3,0 -4,-1 -4,-4l0 -279c0,-3 1,-4 4,-4l114 0c29,0 53,8 70,25 18,16 27,38 27,64 0,36 -19,66 -51,80l57 113c1,2 0,5 -3,5l-60 0zm-43 -162c24,0 39,-14 39,-36 0,-21 -15,-35 -39,-35l-50 0c-2,0 -3,1 -3,3l0 66c0,2 1,3 3,3l50 0z"/>
  <path class="fil5" d="M1016 2067c0,-3 1,-4 4,-4l53 0c3,0 4,1 4,4l0 279c0,3 -1,4 -4,4l-53 0c-3,0 -4,-1 -4,-4l0 -279z"/>
  <path class="fil5" d="M1127 2067c0,-3 1,-4 4,-4l184 0c3,0 4,1 4,4l0 45c0,3 -1,4 -4,4l-124 0c-2,0 -3,1 -3,3l0 57c0,2 1,3 3,3l103 0c3,0 4,1 4,4l0 45c0,3 -1,4 -4,4l-103 0c-2,0 -3,1 -3,3l0 60c0,2 1,3 3,3l124 0c3,0 4,1 4,4l0 45c0,3 -1,4 -4,4l-184 0c-3,0 -4,-1 -4,-4l0 -280z"/>
  <path class="fil5" d="M1526 2067c1,-3 3,-4 6,-4l53 0c3,0 4,1 6,4l97 279c1,3 0,4 -3,4l-55 0c-3,0 -4,-1 -6,-4l-16 -50 -101 0 -16 50c-1,3 -3,4 -6,4l-55 0c-3,0 -4,-1 -3,-4l99 -279zm-2 175l66 0 -33 -101 -1 0 -32 101z"/>
  <polygon class="fil5" points="985,1918 707,1472 278,1472 "/>
  <polygon class="fil5" points="1693,1472 1263,1472 985,1918 "/>
  <polygon class="fil5" points="985,747 985,747 707,1472 707,1472 985,1472 985,1472 985,1472 985,1472 1263,1472 1263,1472 "/>
  <polygon class="fil6" points="985,1472 985,1472 985,1472 707,1472 985,1918 985,1918 985,1918 1263,1472 1263,1472 "/>
  <polygon class="fil7" points="1181,280 790,280 278,1472 707,1472 985,747 1105,1061 954,1061 853,1326 1208,1326 1263,1472 1693,1472 "/>
 </g>
</svg>
